<mxfile host="app.diagrams.net" agent="Mozilla/5.0 (Windows NT 10.0; Win64; x64) AppleWebKit/537.36 (KHTML, like Gecko) Chrome/139.0.0.0 Safari/537.36" version="28.0.7">
  <diagram name="Page-1" id="d6O2i3pFCCcKRCtHvCaO">
    <mxGraphModel dx="4607" dy="2823" grid="1" gridSize="10" guides="1" tooltips="1" connect="1" arrows="1" fold="1" page="1" pageScale="1" pageWidth="850" pageHeight="1100" math="0" shadow="1">
      <root>
        <mxCell id="0" />
        <mxCell id="1" parent="0" />
        <mxCell id="tyZU40l3BzDEL7y51lub-93" style="edgeStyle=none;curved=1;rounded=0;orthogonalLoop=1;jettySize=auto;html=1;entryX=0;entryY=0.5;entryDx=0;entryDy=0;fontSize=12;startSize=8;endSize=8;" edge="1" parent="1">
          <mxGeometry relative="1" as="geometry">
            <mxPoint x="-600" y="-850" as="sourcePoint" />
            <mxPoint x="-600" y="-850" as="targetPoint" />
          </mxGeometry>
        </mxCell>
        <mxCell id="tyZU40l3BzDEL7y51lub-157" style="edgeStyle=none;curved=1;rounded=0;orthogonalLoop=1;jettySize=auto;html=1;fontSize=12;startSize=8;endSize=8;" edge="1" parent="1">
          <mxGeometry relative="1" as="geometry">
            <mxPoint x="-480" y="-890" as="targetPoint" />
            <mxPoint x="-480" y="-970" as="sourcePoint" />
          </mxGeometry>
        </mxCell>
        <mxCell id="tyZU40l3BzDEL7y51lub-146" value="" style="endArrow=classic;html=1;rounded=0;fontSize=12;startSize=8;endSize=8;curved=1;" edge="1" parent="1">
          <mxGeometry width="50" height="50" relative="1" as="geometry">
            <mxPoint x="-480" y="-960" as="sourcePoint" />
            <mxPoint x="-480" y="-890" as="targetPoint" />
          </mxGeometry>
        </mxCell>
        <mxCell id="tyZU40l3BzDEL7y51lub-147" value="Login sign up" style="rounded=0;whiteSpace=wrap;html=1;" vertex="1" parent="1">
          <mxGeometry x="-610" y="-890" width="260" height="60" as="geometry" />
        </mxCell>
        <mxCell id="tyZU40l3BzDEL7y51lub-148" value="Search Food" style="rounded=0;whiteSpace=wrap;html=1;" vertex="1" parent="1">
          <mxGeometry x="-610" y="-760" width="260" height="60" as="geometry" />
        </mxCell>
        <mxCell id="tyZU40l3BzDEL7y51lub-150" value="Place Order" style="rhombus;whiteSpace=wrap;html=1;" vertex="1" parent="1">
          <mxGeometry x="-575" y="-480" width="190" height="160" as="geometry" />
        </mxCell>
        <mxCell id="tyZU40l3BzDEL7y51lub-153" value="" style="endArrow=classic;html=1;rounded=0;fontSize=12;startSize=8;endSize=8;curved=1;" edge="1" parent="1">
          <mxGeometry width="50" height="50" relative="1" as="geometry">
            <mxPoint x="-485.83" y="-700" as="sourcePoint" />
            <mxPoint x="-485.83" y="-640" as="targetPoint" />
            <Array as="points">
              <mxPoint x="-485.83" y="-690" />
            </Array>
          </mxGeometry>
        </mxCell>
        <mxCell id="tyZU40l3BzDEL7y51lub-161" value="" style="endArrow=classic;html=1;rounded=0;fontSize=12;startSize=8;endSize=8;curved=1;" edge="1" parent="1">
          <mxGeometry width="50" height="50" relative="1" as="geometry">
            <mxPoint x="-485.83" y="-830" as="sourcePoint" />
            <mxPoint x="-485.83" y="-760" as="targetPoint" />
          </mxGeometry>
        </mxCell>
        <mxCell id="tyZU40l3BzDEL7y51lub-167" value="Open App/website" style="rounded=0;whiteSpace=wrap;html=1;" vertex="1" parent="1">
          <mxGeometry x="-610" y="-1030" width="260" height="60" as="geometry" />
        </mxCell>
        <mxCell id="tyZU40l3BzDEL7y51lub-168" value="" style="endArrow=classic;html=1;rounded=0;fontSize=12;startSize=8;endSize=8;curved=1;" edge="1" parent="1" source="tyZU40l3BzDEL7y51lub-149" target="tyZU40l3BzDEL7y51lub-150">
          <mxGeometry width="50" height="50" relative="1" as="geometry">
            <mxPoint x="-480" y="-590" as="sourcePoint" />
            <mxPoint x="-480" y="-520" as="targetPoint" />
          </mxGeometry>
        </mxCell>
        <mxCell id="tyZU40l3BzDEL7y51lub-169" value="" style="endArrow=classic;html=1;rounded=0;fontSize=12;startSize=8;endSize=8;curved=1;" edge="1" parent="1" target="tyZU40l3BzDEL7y51lub-149">
          <mxGeometry width="50" height="50" relative="1" as="geometry">
            <mxPoint x="-480" y="-590" as="sourcePoint" />
            <mxPoint x="-483" y="-478" as="targetPoint" />
          </mxGeometry>
        </mxCell>
        <mxCell id="tyZU40l3BzDEL7y51lub-149" value="Select Dish" style="rounded=0;whiteSpace=wrap;html=1;" vertex="1" parent="1">
          <mxGeometry x="-615" y="-640" width="260" height="60" as="geometry" />
        </mxCell>
        <mxCell id="tyZU40l3BzDEL7y51lub-170" value="Payment" style="rounded=0;whiteSpace=wrap;html=1;" vertex="1" parent="1">
          <mxGeometry x="-620" y="-240" width="300" height="60" as="geometry" />
        </mxCell>
        <mxCell id="tyZU40l3BzDEL7y51lub-171" value="" style="endArrow=classic;html=1;rounded=0;fontSize=12;startSize=8;endSize=8;curved=1;entryX=0.462;entryY=0.056;entryDx=0;entryDy=0;entryPerimeter=0;" edge="1" parent="1" target="tyZU40l3BzDEL7y51lub-170">
          <mxGeometry width="50" height="50" relative="1" as="geometry">
            <mxPoint x="-480.83" y="-320" as="sourcePoint" />
            <mxPoint x="-480.83" y="-250" as="targetPoint" />
          </mxGeometry>
        </mxCell>
        <mxCell id="tyZU40l3BzDEL7y51lub-173" value="" style="endArrow=classic;html=1;rounded=0;fontSize=12;startSize=8;endSize=8;curved=1;" edge="1" parent="1" target="tyZU40l3BzDEL7y51lub-174">
          <mxGeometry width="50" height="50" relative="1" as="geometry">
            <mxPoint x="-380" y="-400.83" as="sourcePoint" />
            <mxPoint x="-180" y="-401" as="targetPoint" />
          </mxGeometry>
        </mxCell>
        <mxCell id="tyZU40l3BzDEL7y51lub-174" value="Display Not Available" style="rounded=1;whiteSpace=wrap;html=1;" vertex="1" parent="1">
          <mxGeometry x="-240" y="-431" width="250" height="60" as="geometry" />
        </mxCell>
        <mxCell id="tyZU40l3BzDEL7y51lub-176" value="" style="endArrow=classic;html=1;rounded=0;fontSize=12;startSize=8;endSize=8;curved=1;" edge="1" parent="1">
          <mxGeometry width="50" height="50" relative="1" as="geometry">
            <mxPoint x="-481" y="-170" as="sourcePoint" />
            <mxPoint x="-480.83" y="-80" as="targetPoint" />
            <Array as="points">
              <mxPoint x="-480.83" y="-90" />
            </Array>
          </mxGeometry>
        </mxCell>
        <mxCell id="tyZU40l3BzDEL7y51lub-177" value="" style="endArrow=none;html=1;rounded=0;fontSize=12;startSize=8;endSize=8;curved=1;" edge="1" parent="1">
          <mxGeometry width="50" height="50" relative="1" as="geometry">
            <mxPoint x="-830" y="-80" as="sourcePoint" />
            <mxPoint x="10" y="-80" as="targetPoint" />
          </mxGeometry>
        </mxCell>
        <mxCell id="tyZU40l3BzDEL7y51lub-179" value="" style="endArrow=none;html=1;rounded=0;fontSize=12;startSize=8;endSize=8;curved=1;" edge="1" parent="1">
          <mxGeometry width="50" height="50" relative="1" as="geometry">
            <mxPoint x="-820" y="-70" as="sourcePoint" />
            <mxPoint x="20" y="-70" as="targetPoint" />
          </mxGeometry>
        </mxCell>
        <mxCell id="tyZU40l3BzDEL7y51lub-182" value="" style="endArrow=classic;html=1;rounded=0;fontSize=12;startSize=8;endSize=8;curved=1;" edge="1" parent="1">
          <mxGeometry width="50" height="50" relative="1" as="geometry">
            <mxPoint x="-780" y="-70" as="sourcePoint" />
            <mxPoint x="-780" y="20" as="targetPoint" />
          </mxGeometry>
        </mxCell>
        <mxCell id="tyZU40l3BzDEL7y51lub-183" value="" style="endArrow=classic;html=1;rounded=0;fontSize=12;startSize=8;endSize=8;curved=1;" edge="1" parent="1">
          <mxGeometry width="50" height="50" relative="1" as="geometry">
            <mxPoint x="-480" y="-70" as="sourcePoint" />
            <mxPoint x="-480" y="20" as="targetPoint" />
          </mxGeometry>
        </mxCell>
        <mxCell id="tyZU40l3BzDEL7y51lub-184" value="" style="endArrow=classic;html=1;rounded=0;fontSize=12;startSize=8;endSize=8;curved=1;" edge="1" parent="1">
          <mxGeometry width="50" height="50" relative="1" as="geometry">
            <mxPoint x="-120" y="-70" as="sourcePoint" />
            <mxPoint x="-120" y="20" as="targetPoint" />
          </mxGeometry>
        </mxCell>
        <mxCell id="tyZU40l3BzDEL7y51lub-186" value="Paytm" style="rounded=1;whiteSpace=wrap;html=1;" vertex="1" parent="1">
          <mxGeometry x="-590" y="20" width="240" height="60" as="geometry" />
        </mxCell>
        <mxCell id="tyZU40l3BzDEL7y51lub-187" value="Debt card Credit card" style="rounded=1;whiteSpace=wrap;html=1;" vertex="1" parent="1">
          <mxGeometry x="-860" y="20" width="220" height="60" as="geometry" />
        </mxCell>
        <mxCell id="tyZU40l3BzDEL7y51lub-188" value="Cash on delivert" style="rounded=1;whiteSpace=wrap;html=1;" vertex="1" parent="1">
          <mxGeometry x="-245" y="20" width="260" height="60" as="geometry" />
        </mxCell>
        <mxCell id="tyZU40l3BzDEL7y51lub-189" value="&lt;div&gt;&lt;br&gt;&lt;/div&gt;&lt;div&gt;&lt;br&gt;&lt;/div&gt;" style="endArrow=classic;html=1;rounded=0;fontSize=12;startSize=8;endSize=8;curved=1;" edge="1" parent="1">
          <mxGeometry width="50" height="50" relative="1" as="geometry">
            <mxPoint x="-770" y="80" as="sourcePoint" />
            <mxPoint x="-770" y="200" as="targetPoint" />
            <Array as="points">
              <mxPoint x="-770" y="200" />
            </Array>
          </mxGeometry>
        </mxCell>
        <mxCell id="tyZU40l3BzDEL7y51lub-192" value="" style="endArrow=classic;html=1;rounded=0;fontSize=12;startSize=8;endSize=8;curved=1;" edge="1" parent="1">
          <mxGeometry width="50" height="50" relative="1" as="geometry">
            <mxPoint x="-460" y="80" as="sourcePoint" />
            <mxPoint x="-460" y="200" as="targetPoint" />
          </mxGeometry>
        </mxCell>
        <mxCell id="tyZU40l3BzDEL7y51lub-194" value="" style="endArrow=classic;html=1;rounded=0;fontSize=12;startSize=8;endSize=8;curved=1;" edge="1" parent="1">
          <mxGeometry width="50" height="50" relative="1" as="geometry">
            <mxPoint x="-115.83" y="80" as="sourcePoint" />
            <mxPoint x="-116" y="200" as="targetPoint" />
          </mxGeometry>
        </mxCell>
        <mxCell id="tyZU40l3BzDEL7y51lub-195" style="edgeStyle=none;curved=1;rounded=0;orthogonalLoop=1;jettySize=auto;html=1;exitX=0.5;exitY=1;exitDx=0;exitDy=0;fontSize=12;startSize=8;endSize=8;" edge="1" parent="1" source="tyZU40l3BzDEL7y51lub-187" target="tyZU40l3BzDEL7y51lub-187">
          <mxGeometry relative="1" as="geometry" />
        </mxCell>
        <mxCell id="tyZU40l3BzDEL7y51lub-197" value="" style="endArrow=none;html=1;rounded=0;fontSize=12;startSize=8;endSize=8;curved=1;" edge="1" parent="1">
          <mxGeometry width="50" height="50" relative="1" as="geometry">
            <mxPoint x="-840" y="200" as="sourcePoint" />
            <mxPoint x="11.666666666666666" y="200" as="targetPoint" />
            <Array as="points">
              <mxPoint x="-800" y="200" />
              <mxPoint x="-750" y="200" />
            </Array>
          </mxGeometry>
        </mxCell>
        <mxCell id="tyZU40l3BzDEL7y51lub-198" value="" style="endArrow=classic;html=1;rounded=0;fontSize=12;startSize=8;endSize=8;curved=1;" edge="1" parent="1">
          <mxGeometry width="50" height="50" relative="1" as="geometry">
            <mxPoint x="-460" y="200" as="sourcePoint" />
            <mxPoint x="-460" y="290" as="targetPoint" />
          </mxGeometry>
        </mxCell>
        <mxCell id="tyZU40l3BzDEL7y51lub-199" value="Check Status" style="rounded=1;whiteSpace=wrap;html=1;" vertex="1" parent="1">
          <mxGeometry x="-590" y="290" width="240" height="60" as="geometry" />
        </mxCell>
        <mxCell id="tyZU40l3BzDEL7y51lub-200" value="" style="endArrow=classic;html=1;rounded=0;fontSize=12;startSize=8;endSize=8;curved=1;" edge="1" parent="1">
          <mxGeometry width="50" height="50" relative="1" as="geometry">
            <mxPoint x="-460" y="350" as="sourcePoint" />
            <mxPoint x="-460" y="440" as="targetPoint" />
          </mxGeometry>
        </mxCell>
        <mxCell id="tyZU40l3BzDEL7y51lub-203" value="Receive Food" style="rounded=1;whiteSpace=wrap;html=1;" vertex="1" parent="1">
          <mxGeometry x="-590" y="440" width="240" height="60" as="geometry" />
        </mxCell>
      </root>
    </mxGraphModel>
  </diagram>
</mxfile>
